{
    "accessors": [
        {
            "bufferView": 0,
            "componentType": 5126,
            "count": 258,
            "max": [
                0.018553372472524643,
                0.0,
                0.04049096629023552
            ],
            "min": [
                0.013553371652960777,
                -0.009999999776482582,
                0.02957276441156864
            ],
            "name": "mesh0_coord_accessor",
            "type": "VEC3"
        },
        {
            "bufferView": 1,
            "componentType": 5126,
            "count": 258,
            "max": [
                0.5,
                1.0,
                1.0
            ],
            "min": [
                -0.5,
                0.0,
                -2.0816681711721685e-15
            ],
            "name": "mesh0_norm_accessor",
            "type": "VEC3"
        },
        {
            "bufferView": 2,
            "componentType": 5126,
            "count": 258,
            "max": [
                1.0,
                1.0
            ],
            "min": [
                0.0,
                0.0
            ],
            "name": "mesh0_texcoord_accessor",
            "type": "VEC2"
        },
        {
            "bufferView": 3,
            "componentType": 5125,
            "count": 1308,
            "max": [
                257
            ],
            "min": [
                0
            ],
            "name": "mesh0_idx_accessor",
            "type": "SCALAR"
        },
        {
            "bufferView": 4,
            "componentType": 5126,
            "count": 211,
            "max": [
                0.016053371131420135,
                0.0,
                0.03982109576463699
            ],
            "min": [
                -0.00894662830978632,
                -0.009999999776482582,
                0.0008499519899487495
            ],
            "name": "mesh1_coord_accessor",
            "type": "VEC3"
        },
        {
            "bufferView": 5,
            "componentType": 5126,
            "count": 211,
            "max": [
                2.8124003183949012e-15,
                1.0,
                0.8660253882408142
            ],
            "min": [
                -1.0,
                0.0,
                -2.3107838071408787e-15
            ],
            "name": "mesh1_norm_accessor",
            "type": "VEC3"
        },
        {
            "bufferView": 6,
            "componentType": 5126,
            "count": 211,
            "max": [
                1.0,
                1.0
            ],
            "min": [
                0.0,
                0.0
            ],
            "name": "mesh1_texcoord_accessor",
            "type": "VEC2"
        },
        {
            "bufferView": 7,
            "componentType": 5125,
            "count": 1047,
            "max": [
                210
            ],
            "min": [
                0
            ],
            "name": "mesh1_idx_accessor",
            "type": "SCALAR"
        },
        {
            "bufferView": 8,
            "componentType": 5126,
            "count": 32,
            "max": [
                0.0010533715831115842,
                0.0,
                0.0008499519899487495
            ],
            "min": [
                -0.00894662830978632,
                -0.009999999776482582,
                -0.05915004760026932
            ],
            "name": "mesh2_coord_accessor",
            "type": "VEC3"
        },
        {
            "bufferView": 9,
            "componentType": 5126,
            "count": 32,
            "max": [
                -6.123234262925839e-17,
                1.0,
                0.0
            ],
            "min": [
                -1.0,
                0.0,
                -1.1102230246251565e-16
            ],
            "name": "mesh2_norm_accessor",
            "type": "VEC3"
        },
        {
            "bufferView": 10,
            "componentType": 5126,
            "count": 32,
            "max": [
                1.0,
                1.0
            ],
            "min": [
                0.0,
                0.0
            ],
            "name": "mesh2_texcoord_accessor",
            "type": "VEC2"
        },
        {
            "bufferView": 11,
            "componentType": 5125,
            "count": 90,
            "max": [
                31
            ],
            "min": [
                0
            ],
            "name": "mesh2_idx_accessor",
            "type": "SCALAR"
        },
        {
            "bufferView": 12,
            "componentType": 5126,
            "count": 64,
            "max": [
                0.041053373366594315,
                -0.009999999776482582,
                0.04049096629023552
            ],
            "min": [
                -0.00894662830978632,
                -0.009999999776482582,
                -0.0841500461101532
            ],
            "name": "mesh3_coord_accessor",
            "type": "VEC3"
        },
        {
            "bufferView": 13,
            "componentType": 5126,
            "count": 64,
            "max": [
                0.0,
                -1.0,
                0.0
            ],
            "min": [
                0.0,
                -1.0,
                0.0
            ],
            "name": "mesh3_norm_accessor",
            "type": "VEC3"
        },
        {
            "bufferView": 14,
            "componentType": 5126,
            "count": 64,
            "max": [
                1.0,
                1.0
            ],
            "min": [
                0.0,
                0.0
            ],
            "name": "mesh3_texcoord_accessor",
            "type": "VEC2"
        },
        {
            "bufferView": 15,
            "componentType": 5125,
            "count": 186,
            "max": [
                63
            ],
            "min": [
                0
            ],
            "name": "mesh3_idx_accessor",
            "type": "SCALAR"
        },
        {
            "bufferView": 16,
            "componentType": 5126,
            "count": 54,
            "max": [
                0.031053371727466583,
                0.0,
                0.02957276441156864
            ],
            "min": [
                0.0010533715831115842,
                0.0,
                -0.07415004819631577
            ],
            "name": "mesh4_coord_accessor",
            "type": "VEC3"
        },
        {
            "bufferView": 17,
            "componentType": 5126,
            "count": 54,
            "max": [
                -6.123234262925839e-17,
                1.0,
                0.0
            ],
            "min": [
                -6.123234262925839e-17,
                1.0,
                0.0
            ],
            "name": "mesh4_norm_accessor",
            "type": "VEC3"
        },
        {
            "bufferView": 18,
            "componentType": 5126,
            "count": 54,
            "max": [
                1.0,
                1.0
            ],
            "min": [
                0.0,
                0.0
            ],
            "name": "mesh4_texcoord_accessor",
            "type": "VEC2"
        },
        {
            "bufferView": 19,
            "componentType": 5125,
            "count": 156,
            "max": [
                53
            ],
            "min": [
                0
            ],
            "name": "mesh4_idx_accessor",
            "type": "SCALAR"
        },
        {
            "bufferView": 20,
            "componentType": 5126,
            "count": 482,
            "max": [
                0.041053373366594315,
                0.0,
                -0.05915004760026932
            ],
            "min": [
                -0.00894662830978632,
                -0.009999999776482582,
                -0.0841500461101532
            ],
            "name": "mesh5_coord_accessor",
            "type": "VEC3"
        },
        {
            "bufferView": 21,
            "componentType": 5126,
            "count": 482,
            "max": [
                1.0,
                1.0,
                2.0816681711721685e-16
            ],
            "min": [
                -1.0,
                -0.0,
                -1.0
            ],
            "name": "mesh5_norm_accessor",
            "type": "VEC3"
        },
        {
            "bufferView": 22,
            "componentType": 5126,
            "count": 482,
            "max": [
                1.0,
                1.0
            ],
            "min": [
                0.0,
                0.0
            ],
            "name": "mesh5_texcoord_accessor",
            "type": "VEC2"
        },
        {
            "bufferView": 23,
            "componentType": 5125,
            "count": 2616,
            "max": [
                481
            ],
            "min": [
                0
            ],
            "name": "mesh5_idx_accessor",
            "type": "SCALAR"
        },
        {
            "bufferView": 24,
            "componentType": 5126,
            "count": 32,
            "max": [
                0.041053373366594315,
                0.0,
                0.0008499519899487495
            ],
            "min": [
                0.031053371727466583,
                -0.009999999776482582,
                -0.05915004760026932
            ],
            "name": "mesh6_coord_accessor",
            "type": "VEC3"
        },
        {
            "bufferView": 25,
            "componentType": 5126,
            "count": 32,
            "max": [
                1.0,
                1.0,
                2.0816681711721685e-16
            ],
            "min": [
                6.123234262925839e-17,
                0.0,
                -0.0
            ],
            "name": "mesh6_norm_accessor",
            "type": "VEC3"
        },
        {
            "bufferView": 26,
            "componentType": 5126,
            "count": 32,
            "max": [
                1.0,
                1.0
            ],
            "min": [
                0.0,
                0.0
            ],
            "name": "mesh6_texcoord_accessor",
            "type": "VEC2"
        },
        {
            "bufferView": 27,
            "componentType": 5125,
            "count": 90,
            "max": [
                31
            ],
            "min": [
                0
            ],
            "name": "mesh6_idx_accessor",
            "type": "SCALAR"
        },
        {
            "bufferView": 28,
            "componentType": 5126,
            "count": 211,
            "max": [
                0.041053373366594315,
                0.0,
                0.03982109576463699
            ],
            "min": [
                0.016053371131420135,
                -0.009999999776482582,
                0.0008499519899487495
            ],
            "name": "mesh7_coord_accessor",
            "type": "VEC3"
        },
        {
            "bufferView": 29,
            "componentType": 5126,
            "count": 211,
            "max": [
                1.0,
                1.0,
                0.8660253882408142
            ],
            "min": [
                -2.709533037390313e-15,
                0.0,
                -2.1447384561829605e-15
            ],
            "name": "mesh7_norm_accessor",
            "type": "VEC3"
        },
        {
            "bufferView": 30,
            "componentType": 5126,
            "count": 211,
            "max": [
                1.0,
                1.0
            ],
            "min": [
                0.0,
                0.0
            ],
            "name": "mesh7_texcoord_accessor",
            "type": "VEC2"
        },
        {
            "bufferView": 31,
            "componentType": 5125,
            "count": 1047,
            "max": [
                210
            ],
            "min": [
                0
            ],
            "name": "mesh7_idx_accessor",
            "type": "SCALAR"
        },
        {
            "bufferView": 32,
            "componentType": 5126,
            "count": 13,
            "max": [
                0.05352933704853058,
                0.017108503729104996,
                0.05832445248961449
            ],
            "min": [
                0.04636228084564209,
                -3.9263587748610615e-18,
                0.03882429376244545
            ],
            "name": "mesh8_coord_accessor",
            "type": "VEC3"
        },
        {
            "bufferView": 33,
            "componentType": 5126,
            "count": 13,
            "max": [
                0.9451113343238831,
                -2.000757830427539e-17,
                0.377764493227005
            ],
            "min": [
                0.9259017109870911,
                -2.313140272652475e-17,
                0.3267485499382019
            ],
            "name": "mesh8_norm_accessor",
            "type": "VEC3"
        },
        {
            "bufferView": 34,
            "componentType": 5126,
            "count": 13,
            "max": [
                1.0,
                1.0
            ],
            "min": [
                0.0,
                0.0
            ],
            "name": "mesh8_texcoord_accessor",
            "type": "VEC2"
        },
        {
            "bufferView": 35,
            "componentType": 5125,
            "count": 33,
            "max": [
                12
            ],
            "min": [
                0
            ],
            "name": "mesh8_idx_accessor",
            "type": "SCALAR"
        },
        {
            "bufferView": 36,
            "componentType": 5126,
            "count": 302,
            "max": [
                0.05352933704853058,
                0.03494912385940552,
                0.06643461436033249
            ],
            "min": [
                0.03574457764625549,
                -3.170846662222792e-15,
                0.008481161668896675
            ],
            "name": "mesh9_coord_accessor",
            "type": "VEC3"
        },
        {
            "bufferView": 37,
            "componentType": 5126,
            "count": 302,
            "max": [
                0.9451113343238831,
                0.9992731809616089,
                0.8704755902290344
            ],
            "min": [
                -5.199813502207982e-17,
                -0.0015327935107052326,
                0.03811891749501228
            ],
            "name": "mesh9_norm_accessor",
            "type": "VEC3"
        },
        {
            "bufferView": 38,
            "componentType": 5126,
            "count": 302,
            "max": [
                1.0,
                1.0
            ],
            "min": [
                0.0,
                0.0
            ],
            "name": "mesh9_texcoord_accessor",
            "type": "VEC2"
        },
        {
            "bufferView": 39,
            "componentType": 5125,
            "count": 1455,
            "max": [
                301
            ],
            "min": [
                0
            ],
            "name": "mesh9_idx_accessor",
            "type": "SCALAR"
        },
        {
            "bufferView": 40,
            "componentType": 5126,
            "count": 52,
            "max": [
                0.05352933704853058,
                0.03500000014901161,
                0.03882429376244545
            ],
            "min": [
                0.05352933704853058,
                -3.9263587748610615e-18,
                -0.029187163338065147
            ],
            "name": "mesh10_coord_accessor",
            "type": "VEC3"
        },
        {
            "bufferView": 41,
            "componentType": 5126,
            "count": 52,
            "max": [
                1.0,
                -1.232595164407831e-32,
                6.123234262925839e-17
            ],
            "min": [
                1.0,
                -1.232595164407831e-32,
                6.123234262925839e-17
            ],
            "name": "mesh10_norm_accessor",
            "type": "VEC3"
        },
        {
            "bufferView": 42,
            "componentType": 5126,
            "count": 52,
            "max": [
                1.0,
                1.0
            ],
            "min": [
                0.0,
                0.0
            ],
            "name": "mesh10_texcoord_accessor",
            "type": "VEC2"
        },
        {
            "bufferView": 43,
            "componentType": 5125,
            "count": 150,
            "max": [
                51
            ],
            "min": [
                0
            ],
            "name": "mesh10_idx_accessor",
            "type": "SCALAR"
        },
        {
            "bufferView": 44,
            "componentType": 5126,
            "count": 66,
            "max": [
                0.05352933704853058,
                0.03500000014901161,
                0.06643461436033249
            ],
            "min": [
                0.011433344334363937,
                -6.7060057519362925e-18,
                0.005812837276607752
            ],
            "name": "mesh11_coord_accessor",
            "type": "VEC3"
        },
        {
            "bufferView": 45,
            "componentType": 5126,
            "count": 66,
            "max": [
                1.6075351037131295e-32,
                1.0,
                0.8660253882408142
            ],
            "min": [
                -9.912705482475399e-17,
                0.5,
                -6.123234262925839e-17
            ],
            "name": "mesh11_norm_accessor",
            "type": "VEC3"
        },
        {
            "bufferView": 46,
            "componentType": 5126,
            "count": 66,
            "max": [
                1.0,
                1.0
            ],
            "min": [
                0.0,
                0.0
            ],
            "name": "mesh11_texcoord_accessor",
            "type": "VEC2"
        },
        {
            "bufferView": 47,
            "componentType": 5125,
            "count": 192,
            "max": [
                65
            ],
            "min": [
                0
            ],
            "name": "mesh11_idx_accessor",
            "type": "SCALAR"
        },
        {
            "bufferView": 48,
            "componentType": 5126,
            "count": 98,
            "max": [
                0.05352933704853058,
                9.339986140422874e-17,
                0.06643461436033249
            ],
            "min": [
                0.0035293360706418753,
                -3.170846662222792e-15,
                -0.05418716371059418
            ],
            "name": "mesh12_coord_accessor",
            "type": "VEC3"
        },
        {
            "bufferView": 49,
            "componentType": 5126,
            "count": 98,
            "max": [
                -0.0,
                -1.0,
                -6.123234262925839e-17
            ],
            "min": [
                -0.0,
                -1.0,
                -6.123234262925839e-17
            ],
            "name": "mesh12_norm_accessor",
            "type": "VEC3"
        },
        {
            "bufferView": 50,
            "componentType": 5126,
            "count": 98,
            "max": [
                1.0,
                1.0
            ],
            "min": [
                0.0,
                0.0
            ],
            "name": "mesh12_texcoord_accessor",
            "type": "VEC2"
        },
        {
            "bufferView": 51,
            "componentType": 5125,
            "count": 288,
            "max": [
                97
            ],
            "min": [
                0
            ],
            "name": "mesh12_idx_accessor",
            "type": "SCALAR"
        },
        {
            "bufferView": 52,
            "componentType": 5126,
            "count": 21,
            "max": [
                0.00934570748358965,
                0.01800602674484253,
                0.05877652391791344
            ],
            "min": [
                0.0035293360706418753,
                -3.2635497033702836e-18,
                0.03466017171740532
            ],
            "name": "mesh13_coord_accessor",
            "type": "VEC3"
        },
        {
            "bufferView": 53,
            "componentType": 5126,
            "count": 21,
            "max": [
                -0.9061430096626282,
                -4.494276168021594e-18,
                0.4229713976383209
            ],
            "min": [
                -0.997302770614624,
                -2.5899529559208954e-17,
                0.07339709997177124
            ],
            "name": "mesh13_norm_accessor",
            "type": "VEC3"
        },
        {
            "bufferView": 54,
            "componentType": 5126,
            "count": 21,
            "max": [
                1.0,
                1.0
            ],
            "min": [
                0.0,
                0.0
            ],
            "name": "mesh13_texcoord_accessor",
            "type": "VEC2"
        },
        {
            "bufferView": 55,
            "componentType": 5125,
            "count": 57,
            "max": [
                20
            ],
            "min": [
                0
            ],
            "name": "mesh13_idx_accessor",
            "type": "SCALAR"
        },
        {
            "bufferView": 56,
            "componentType": 5126,
            "count": 47,
            "max": [
                0.0035293360706418753,
                0.03347134217619896,
                0.03466017171740532
            ],
            "min": [
                0.0035293360706418753,
                -3.2635497033702836e-18,
                -0.029187163338065147
            ],
            "name": "mesh14_coord_accessor",
            "type": "VEC3"
        },
        {
            "bufferView": 57,
            "componentType": 5126,
            "count": 47,
            "max": [
                -1.0,
                1.232595164407831e-32,
                -6.123234262925839e-17
            ],
            "min": [
                -1.0,
                1.232595164407831e-32,
                -6.123234262925839e-17
            ],
            "name": "mesh14_norm_accessor",
            "type": "VEC3"
        },
        {
            "bufferView": 58,
            "componentType": 5126,
            "count": 47,
            "max": [
                1.0,
                1.0
            ],
            "min": [
                0.0,
                0.0
            ],
            "name": "mesh14_texcoord_accessor",
            "type": "VEC2"
        },
        {
            "bufferView": 59,
            "componentType": 5125,
            "count": 135,
            "max": [
                46
            ],
            "min": [
                0
            ],
            "name": "mesh14_idx_accessor",
            "type": "SCALAR"
        },
        {
            "bufferView": 60,
            "componentType": 5126,
            "count": 75,
            "max": [
                0.05352933704853058,
                0.03500000014901161,
                -0.029187163338065147
            ],
            "min": [
                0.0035293360706418753,
                1.6550950894057547e-19,
                -0.05418716371059418
            ],
            "name": "mesh15_coord_accessor",
            "type": "VEC3"
        },
        {
            "bufferView": 61,
            "componentType": 5126,
            "count": 75,
            "max": [
                1.0,
                6.123234262925839e-17,
                1.5543122344752192e-15
            ],
            "min": [
                -1.0,
                -9.517417635549895e-32,
                -1.0
            ],
            "name": "mesh15_norm_accessor",
            "type": "VEC3"
        },
        {
            "bufferView": 62,
            "componentType": 5126,
            "count": 75,
            "max": [
                1.0,
                1.0
            ],
            "min": [
                0.0,
                0.0
            ],
            "name": "mesh15_texcoord_accessor",
            "type": "VEC2"
        },
        {
            "bufferView": 63,
            "componentType": 5125,
            "count": 219,
            "max": [
                74
            ],
            "min": [
                0
            ],
            "name": "mesh15_idx_accessor",
            "type": "SCALAR"
        },
        {
            "bufferView": 64,
            "componentType": 5126,
            "count": 400,
            "max": [
                0.020016640424728394,
                0.03500000014901161,
                0.06643461436033249
            ],
            "min": [
                0.0035293360706418753,
                -3.034806818146647e-16,
                0.005812837276607752
            ],
            "name": "mesh16_coord_accessor",
            "type": "VEC3"
        },
        {
            "bufferView": 65,
            "componentType": 5126,
            "count": 400,
            "max": [
                0.0009723575203679502,
                1.0,
                0.8724980354309082
            ],
            "min": [
                -0.997302770614624,
                -0.0013516724575310946,
                -4.076600168545497e-15
            ],
            "name": "mesh16_norm_accessor",
            "type": "VEC3"
        },
        {
            "bufferView": 66,
            "componentType": 5126,
            "count": 400,
            "max": [
                1.0,
                1.0
            ],
            "min": [
                0.0,
                0.0
            ],
            "name": "mesh16_texcoord_accessor",
            "type": "VEC2"
        },
        {
            "bufferView": 67,
            "componentType": 5125,
            "count": 2010,
            "max": [
                399
            ],
            "min": [
                0
            ],
            "name": "mesh16_idx_accessor",
            "type": "SCALAR"
        },
        {
            "bufferView": 68,
            "componentType": 5126,
            "count": 54,
            "max": [
                0.011433344334363937,
                0.03500000014901161,
                0.006394537631422281
            ],
            "min": [
                0.0035293360706418753,
                0.031098218634724617,
                -0.04320068284869194
            ],
            "name": "mesh17_coord_accessor",
            "type": "VEC3"
        },
        {
            "bufferView": 69,
            "componentType": 5126,
            "count": 54,
            "max": [
                0.0,
                1.0,
                0.05817002058029175
            ],
            "min": [
                -0.7904008030891418,
                0.6098219156265259,
                0.0
            ],
            "name": "mesh17_norm_accessor",
            "type": "VEC3"
        },
        {
            "bufferView": 70,
            "componentType": 5126,
            "count": 54,
            "max": [
                1.0,
                1.0
            ],
            "min": [
                0.0,
                0.0
            ],
            "name": "mesh17_texcoord_accessor",
            "type": "VEC2"
        },
        {
            "bufferView": 71,
            "componentType": 5125,
            "count": 174,
            "max": [
                53
            ],
            "min": [
                0
            ],
            "name": "mesh17_idx_accessor",
            "type": "SCALAR"
        },
        {
            "bufferView": 72,
            "componentType": 5126,
            "count": 77,
            "max": [
                0.05352933704853058,
                0.03500000014901161,
                0.005812837276607752
            ],
            "min": [
                0.007826165296137333,
                0.03500000014901161,
                -0.05418716371059418
            ],
            "name": "mesh18_coord_accessor",
            "type": "VEC3"
        },
        {
            "bufferView": 73,
            "componentType": 5126,
            "count": 77,
            "max": [
                0.0,
                1.0,
                0.0
            ],
            "min": [
                0.0,
                1.0,
                0.0
            ],
            "name": "mesh18_norm_accessor",
            "type": "VEC3"
        },
        {
            "bufferView": 74,
            "componentType": 5126,
            "count": 77,
            "max": [
                1.0,
                1.0
            ],
            "min": [
                0.0,
                0.0
            ],
            "name": "mesh18_texcoord_accessor",
            "type": "VEC2"
        },
        {
            "bufferView": 75,
            "componentType": 5125,
            "count": 225,
            "max": [
                76
            ],
            "min": [
                0
            ],
            "name": "mesh18_idx_accessor",
            "type": "SCALAR"
        },
        {
            "bufferView": 76,
            "componentType": 5126,
            "count": 95,
            "max": [
                0.0488065741956234,
                0.03500000014901161,
                -0.01430518552660942
            ],
            "min": [
                0.008810299448668957,
                0.018637640401721,
                -0.04977753758430481
            ],
            "name": "mesh19_coord_accessor",
            "type": "VEC3"
        },
        {
            "bufferView": 77,
            "componentType": 5126,
            "count": 95,
            "max": [
                0.9999967813491821,
                4.737041683687025e-17,
                1.0
            ],
            "min": [
                -0.9998169541358948,
                -6.123234262925839e-17,
                -0.7736176252365112
            ],
            "name": "mesh19_norm_accessor",
            "type": "VEC3"
        },
        {
            "bufferView": 78,
            "componentType": 5126,
            "count": 95,
            "max": [
                1.0,
                1.0
            ],
            "min": [
                0.0,
                0.0
            ],
            "name": "mesh19_texcoord_accessor",
            "type": "VEC2"
        },
        {
            "bufferView": 79,
            "componentType": 5125,
            "count": 279,
            "max": [
                94
            ],
            "min": [
                0
            ],
            "name": "mesh19_idx_accessor",
            "type": "SCALAR"
        },
        {
            "bufferView": 80,
            "componentType": 5126,
            "count": 4,
            "max": [
                0.04148329049348831,
                0.03500000014901161,
                -0.00992762204259634
            ],
            "min": [
                0.026364663615822792,
                0.018637640401721,
                -0.01430518552660942
            ],
            "name": "mesh20_coord_accessor",
            "type": "VEC3"
        },
        {
            "bufferView": 81,
            "componentType": 5126,
            "count": 4,
            "max": [
                -0.2781237065792084,
                5.881643261012172e-17,
                -0.9605452418327332
            ],
            "min": [
                -0.2781237065792084,
                5.881643261012172e-17,
                -0.9605452418327332
            ],
            "name": "mesh20_norm_accessor",
            "type": "VEC3"
        },
        {
            "bufferView": 82,
            "componentType": 5126,
            "count": 4,
            "max": [
                1.0,
                1.0
            ],
            "min": [
                0.0,
                0.0
            ],
            "name": "mesh20_texcoord_accessor",
            "type": "VEC2"
        },
        {
            "bufferView": 83,
            "componentType": 5125,
            "count": 6,
            "max": [
                3
            ],
            "min": [
                0
            ],
            "name": "mesh20_idx_accessor",
            "type": "SCALAR"
        },
        {
            "bufferView": 84,
            "componentType": 5126,
            "count": 4,
            "max": [
                0.026364663615822792,
                0.03500000014901161,
                -0.00992762204259634
            ],
            "min": [
                0.013954206369817257,
                0.018637640401721,
                -0.016387302428483963
            ],
            "name": "mesh21_coord_accessor",
            "type": "VEC3"
        },
        {
            "bufferView": 85,
            "componentType": 5126,
            "count": 4,
            "max": [
                0.461703896522522,
                5.431517379695926e-17,
                -0.8870341181755066
            ],
            "min": [
                0.461703896522522,
                5.431517379695926e-17,
                -0.8870341181755066
            ],
            "name": "mesh21_norm_accessor",
            "type": "VEC3"
        },
        {
            "bufferView": 86,
            "componentType": 5126,
            "count": 4,
            "max": [
                1.0,
                1.0
            ],
            "min": [
                0.0,
                0.0
            ],
            "name": "mesh21_texcoord_accessor",
            "type": "VEC2"
        },
        {
            "bufferView": 87,
            "componentType": 5125,
            "count": 6,
            "max": [
                3
            ],
            "min": [
                0
            ],
            "name": "mesh21_idx_accessor",
            "type": "SCALAR"
        },
        {
            "bufferView": 88,
            "componentType": 5126,
            "count": 47,
            "max": [
                0.0488065741956234,
                0.018637640401721,
                -0.00992762204259634
            ],
            "min": [
                0.00881583709269762,
                0.018637640401721,
                -0.04977753758430481
            ],
            "name": "mesh22_coord_accessor",
            "type": "VEC3"
        },
        {
            "bufferView": 89,
            "componentType": 5126,
            "count": 47,
            "max": [
                0.0,
                1.0,
                6.123234262925839e-17
            ],
            "min": [
                0.0,
                1.0,
                6.123234262925839e-17
            ],
            "name": "mesh22_norm_accessor",
            "type": "VEC3"
        },
        {
            "bufferView": 90,
            "componentType": 5126,
            "count": 47,
            "max": [
                1.0,
                1.0
            ],
            "min": [
                0.0,
                0.0
            ],
            "name": "mesh22_texcoord_accessor",
            "type": "VEC2"
        },
        {
            "bufferView": 91,
            "componentType": 5125,
            "count": 135,
            "max": [
                46
            ],
            "min": [
                0
            ],
            "name": "mesh22_idx_accessor",
            "type": "SCALAR"
        }
    ],
    "asset": {
        "generator": "ONSHAPE BY PTC INC, 1.213",
        "version": "2.0"
    },
    "bufferViews": [
        {
            "buffer": 0,
            "byteLength": 3096,
            "name": "mesh0_coord_bufferView",
            "target": 34962
        },
        {
            "buffer": 0,
            "byteLength": 3096,
            "byteOffset": 3096,
            "name": "mesh0_norm_bufferView",
            "target": 34962
        },
        {
            "buffer": 0,
            "byteLength": 2064,
            "byteOffset": 6192,
            "name": "mesh0_texcoord_bufferView",
            "target": 34962
        },
        {
            "buffer": 0,
            "byteLength": 5232,
            "byteOffset": 8256,
            "name": "mesh0_idx_bufferView",
            "target": 34963
        },
        {
            "buffer": 0,
            "byteLength": 2532,
            "byteOffset": 13488,
            "name": "mesh1_coord_bufferView",
            "target": 34962
        },
        {
            "buffer": 0,
            "byteLength": 2532,
            "byteOffset": 16020,
            "name": "mesh1_norm_bufferView",
            "target": 34962
        },
        {
            "buffer": 0,
            "byteLength": 1688,
            "byteOffset": 18552,
            "name": "mesh1_texcoord_bufferView",
            "target": 34962
        },
        {
            "buffer": 0,
            "byteLength": 4188,
            "byteOffset": 20240,
            "name": "mesh1_idx_bufferView",
            "target": 34963
        },
        {
            "buffer": 0,
            "byteLength": 384,
            "byteOffset": 24428,
            "name": "mesh2_coord_bufferView",
            "target": 34962
        },
        {
            "buffer": 0,
            "byteLength": 384,
            "byteOffset": 24812,
            "name": "mesh2_norm_bufferView",
            "target": 34962
        },
        {
            "buffer": 0,
            "byteLength": 256,
            "byteOffset": 25196,
            "name": "mesh2_texcoord_bufferView",
            "target": 34962
        },
        {
            "buffer": 0,
            "byteLength": 360,
            "byteOffset": 25452,
            "name": "mesh2_idx_bufferView",
            "target": 34963
        },
        {
            "buffer": 0,
            "byteLength": 768,
            "byteOffset": 25812,
            "name": "mesh3_coord_bufferView",
            "target": 34962
        },
        {
            "buffer": 0,
            "byteLength": 768,
            "byteOffset": 26580,
            "name": "mesh3_norm_bufferView",
            "target": 34962
        },
        {
            "buffer": 0,
            "byteLength": 512,
            "byteOffset": 27348,
            "name": "mesh3_texcoord_bufferView",
            "target": 34962
        },
        {
            "buffer": 0,
            "byteLength": 744,
            "byteOffset": 27860,
            "name": "mesh3_idx_bufferView",
            "target": 34963
        },
        {
            "buffer": 0,
            "byteLength": 648,
            "byteOffset": 28604,
            "name": "mesh4_coord_bufferView",
            "target": 34962
        },
        {
            "buffer": 0,
            "byteLength": 648,
            "byteOffset": 29252,
            "name": "mesh4_norm_bufferView",
            "target": 34962
        },
        {
            "buffer": 0,
            "byteLength": 432,
            "byteOffset": 29900,
            "name": "mesh4_texcoord_bufferView",
            "target": 34962
        },
        {
            "buffer": 0,
            "byteLength": 624,
            "byteOffset": 30332,
            "name": "mesh4_idx_bufferView",
            "target": 34963
        },
        {
            "buffer": 0,
            "byteLength": 5784,
            "byteOffset": 30956,
            "name": "mesh5_coord_bufferView",
            "target": 34962
        },
        {
            "buffer": 0,
            "byteLength": 5784,
            "byteOffset": 36740,
            "name": "mesh5_norm_bufferView",
            "target": 34962
        },
        {
            "buffer": 0,
            "byteLength": 3856,
            "byteOffset": 42524,
            "name": "mesh5_texcoord_bufferView",
            "target": 34962
        },
        {
            "buffer": 0,
            "byteLength": 10464,
            "byteOffset": 46380,
            "name": "mesh5_idx_bufferView",
            "target": 34963
        },
        {
            "buffer": 0,
            "byteLength": 384,
            "byteOffset": 56844,
            "name": "mesh6_coord_bufferView",
            "target": 34962
        },
        {
            "buffer": 0,
            "byteLength": 384,
            "byteOffset": 57228,
            "name": "mesh6_norm_bufferView",
            "target": 34962
        },
        {
            "buffer": 0,
            "byteLength": 256,
            "byteOffset": 57612,
            "name": "mesh6_texcoord_bufferView",
            "target": 34962
        },
        {
            "buffer": 0,
            "byteLength": 360,
            "byteOffset": 57868,
            "name": "mesh6_idx_bufferView",
            "target": 34963
        },
        {
            "buffer": 0,
            "byteLength": 2532,
            "byteOffset": 58228,
            "name": "mesh7_coord_bufferView",
            "target": 34962
        },
        {
            "buffer": 0,
            "byteLength": 2532,
            "byteOffset": 60760,
            "name": "mesh7_norm_bufferView",
            "target": 34962
        },
        {
            "buffer": 0,
            "byteLength": 1688,
            "byteOffset": 63292,
            "name": "mesh7_texcoord_bufferView",
            "target": 34962
        },
        {
            "buffer": 0,
            "byteLength": 4188,
            "byteOffset": 64980,
            "name": "mesh7_idx_bufferView",
            "target": 34963
        },
        {
            "buffer": 0,
            "byteLength": 156,
            "byteOffset": 69168,
            "name": "mesh8_coord_bufferView",
            "target": 34962
        },
        {
            "buffer": 0,
            "byteLength": 156,
            "byteOffset": 69324,
            "name": "mesh8_norm_bufferView",
            "target": 34962
        },
        {
            "buffer": 0,
            "byteLength": 104,
            "byteOffset": 69480,
            "name": "mesh8_texcoord_bufferView",
            "target": 34962
        },
        {
            "buffer": 0,
            "byteLength": 132,
            "byteOffset": 69584,
            "name": "mesh8_idx_bufferView",
            "target": 34963
        },
        {
            "buffer": 0,
            "byteLength": 3624,
            "byteOffset": 69716,
            "name": "mesh9_coord_bufferView",
            "target": 34962
        },
        {
            "buffer": 0,
            "byteLength": 3624,
            "byteOffset": 73340,
            "name": "mesh9_norm_bufferView",
            "target": 34962
        },
        {
            "buffer": 0,
            "byteLength": 2416,
            "byteOffset": 76964,
            "name": "mesh9_texcoord_bufferView",
            "target": 34962
        },
        {
            "buffer": 0,
            "byteLength": 5820,
            "byteOffset": 79380,
            "name": "mesh9_idx_bufferView",
            "target": 34963
        },
        {
            "buffer": 0,
            "byteLength": 624,
            "byteOffset": 85200,
            "name": "mesh10_coord_bufferView",
            "target": 34962
        },
        {
            "buffer": 0,
            "byteLength": 624,
            "byteOffset": 85824,
            "name": "mesh10_norm_bufferView",
            "target": 34962
        },
        {
            "buffer": 0,
            "byteLength": 416,
            "byteOffset": 86448,
            "name": "mesh10_texcoord_bufferView",
            "target": 34962
        },
        {
            "buffer": 0,
            "byteLength": 600,
            "byteOffset": 86864,
            "name": "mesh10_idx_bufferView",
            "target": 34963
        },
        {
            "buffer": 0,
            "byteLength": 792,
            "byteOffset": 87464,
            "name": "mesh11_coord_bufferView",
            "target": 34962
        },
        {
            "buffer": 0,
            "byteLength": 792,
            "byteOffset": 88256,
            "name": "mesh11_norm_bufferView",
            "target": 34962
        },
        {
            "buffer": 0,
            "byteLength": 528,
            "byteOffset": 89048,
            "name": "mesh11_texcoord_bufferView",
            "target": 34962
        },
        {
            "buffer": 0,
            "byteLength": 768,
            "byteOffset": 89576,
            "name": "mesh11_idx_bufferView",
            "target": 34963
        },
        {
            "buffer": 0,
            "byteLength": 1176,
            "byteOffset": 90344,
            "name": "mesh12_coord_bufferView",
            "target": 34962
        },
        {
            "buffer": 0,
            "byteLength": 1176,
            "byteOffset": 91520,
            "name": "mesh12_norm_bufferView",
            "target": 34962
        },
        {
            "buffer": 0,
            "byteLength": 784,
            "byteOffset": 92696,
            "name": "mesh12_texcoord_bufferView",
            "target": 34962
        },
        {
            "buffer": 0,
            "byteLength": 1152,
            "byteOffset": 93480,
            "name": "mesh12_idx_bufferView",
            "target": 34963
        },
        {
            "buffer": 0,
            "byteLength": 252,
            "byteOffset": 94632,
            "name": "mesh13_coord_bufferView",
            "target": 34962
        },
        {
            "buffer": 0,
            "byteLength": 252,
            "byteOffset": 94884,
            "name": "mesh13_norm_bufferView",
            "target": 34962
        },
        {
            "buffer": 0,
            "byteLength": 168,
            "byteOffset": 95136,
            "name": "mesh13_texcoord_bufferView",
            "target": 34962
        },
        {
            "buffer": 0,
            "byteLength": 228,
            "byteOffset": 95304,
            "name": "mesh13_idx_bufferView",
            "target": 34963
        },
        {
            "buffer": 0,
            "byteLength": 564,
            "byteOffset": 95532,
            "name": "mesh14_coord_bufferView",
            "target": 34962
        },
        {
            "buffer": 0,
            "byteLength": 564,
            "byteOffset": 96096,
            "name": "mesh14_norm_bufferView",
            "target": 34962
        },
        {
            "buffer": 0,
            "byteLength": 376,
            "byteOffset": 96660,
            "name": "mesh14_texcoord_bufferView",
            "target": 34962
        },
        {
            "buffer": 0,
            "byteLength": 540,
            "byteOffset": 97036,
            "name": "mesh14_idx_bufferView",
            "target": 34963
        },
        {
            "buffer": 0,
            "byteLength": 900,
            "byteOffset": 97576,
            "name": "mesh15_coord_bufferView",
            "target": 34962
        },
        {
            "buffer": 0,
            "byteLength": 900,
            "byteOffset": 98476,
            "name": "mesh15_norm_bufferView",
            "target": 34962
        },
        {
            "buffer": 0,
            "byteLength": 600,
            "byteOffset": 99376,
            "name": "mesh15_texcoord_bufferView",
            "target": 34962
        },
        {
            "buffer": 0,
            "byteLength": 876,
            "byteOffset": 99976,
            "name": "mesh15_idx_bufferView",
            "target": 34963
        },
        {
            "buffer": 0,
            "byteLength": 4800,
            "byteOffset": 100852,
            "name": "mesh16_coord_bufferView",
            "target": 34962
        },
        {
            "buffer": 0,
            "byteLength": 4800,
            "byteOffset": 105652,
            "name": "mesh16_norm_bufferView",
            "target": 34962
        },
        {
            "buffer": 0,
            "byteLength": 3200,
            "byteOffset": 110452,
            "name": "mesh16_texcoord_bufferView",
            "target": 34962
        },
        {
            "buffer": 0,
            "byteLength": 8040,
            "byteOffset": 113652,
            "name": "mesh16_idx_bufferView",
            "target": 34963
        },
        {
            "buffer": 0,
            "byteLength": 648,
            "byteOffset": 121692,
            "name": "mesh17_coord_bufferView",
            "target": 34962
        },
        {
            "buffer": 0,
            "byteLength": 648,
            "byteOffset": 122340,
            "name": "mesh17_norm_bufferView",
            "target": 34962
        },
        {
            "buffer": 0,
            "byteLength": 432,
            "byteOffset": 122988,
            "name": "mesh17_texcoord_bufferView",
            "target": 34962
        },
        {
            "buffer": 0,
            "byteLength": 696,
            "byteOffset": 123420,
            "name": "mesh17_idx_bufferView",
            "target": 34963
        },
        {
            "buffer": 0,
            "byteLength": 924,
            "byteOffset": 124116,
            "name": "mesh18_coord_bufferView",
            "target": 34962
        },
        {
            "buffer": 0,
            "byteLength": 924,
            "byteOffset": 125040,
            "name": "mesh18_norm_bufferView",
            "target": 34962
        },
        {
            "buffer": 0,
            "byteLength": 616,
            "byteOffset": 125964,
            "name": "mesh18_texcoord_bufferView",
            "target": 34962
        },
        {
            "buffer": 0,
            "byteLength": 900,
            "byteOffset": 126580,
            "name": "mesh18_idx_bufferView",
            "target": 34963
        },
        {
            "buffer": 0,
            "byteLength": 1140,
            "byteOffset": 127480,
            "name": "mesh19_coord_bufferView",
            "target": 34962
        },
        {
            "buffer": 0,
            "byteLength": 1140,
            "byteOffset": 128620,
            "name": "mesh19_norm_bufferView",
            "target": 34962
        },
        {
            "buffer": 0,
            "byteLength": 760,
            "byteOffset": 129760,
            "name": "mesh19_texcoord_bufferView",
            "target": 34962
        },
        {
            "buffer": 0,
            "byteLength": 1116,
            "byteOffset": 130520,
            "name": "mesh19_idx_bufferView",
            "target": 34963
        },
        {
            "buffer": 0,
            "byteLength": 48,
            "byteOffset": 131636,
            "name": "mesh20_coord_bufferView",
            "target": 34962
        },
        {
            "buffer": 0,
            "byteLength": 48,
            "byteOffset": 131684,
            "name": "mesh20_norm_bufferView",
            "target": 34962
        },
        {
            "buffer": 0,
            "byteLength": 32,
            "byteOffset": 131732,
            "name": "mesh20_texcoord_bufferView",
            "target": 34962
        },
        {
            "buffer": 0,
            "byteLength": 24,
            "byteOffset": 131764,
            "name": "mesh20_idx_bufferView",
            "target": 34963
        },
        {
            "buffer": 0,
            "byteLength": 48,
            "byteOffset": 131788,
            "name": "mesh21_coord_bufferView",
            "target": 34962
        },
        {
            "buffer": 0,
            "byteLength": 48,
            "byteOffset": 131836,
            "name": "mesh21_norm_bufferView",
            "target": 34962
        },
        {
            "buffer": 0,
            "byteLength": 32,
            "byteOffset": 131884,
            "name": "mesh21_texcoord_bufferView",
            "target": 34962
        },
        {
            "buffer": 0,
            "byteLength": 24,
            "byteOffset": 131916,
            "name": "mesh21_idx_bufferView",
            "target": 34963
        },
        {
            "buffer": 0,
            "byteLength": 564,
            "byteOffset": 131940,
            "name": "mesh22_coord_bufferView",
            "target": 34962
        },
        {
            "buffer": 0,
            "byteLength": 564,
            "byteOffset": 132504,
            "name": "mesh22_norm_bufferView",
            "target": 34962
        },
        {
            "buffer": 0,
            "byteLength": 376,
            "byteOffset": 133068,
            "name": "mesh22_texcoord_bufferView",
            "target": 34962
        },
        {
            "buffer": 0,
            "byteLength": 540,
            "byteOffset": 133444,
            "name": "mesh22_idx_bufferView",
            "target": 34963
        }
    ],
    "buffers": [
        {
            "byteLength": 133984,
            "name": "Total_buffer",
            "uri": "data:application/octet-stream;base64,"
        }
    ],
    "extensionsUsed": [
        "PTC_onshape_metadata"
    ],
    "materials": [
        {
            "doubleSided": true,
            "name": "0.615686_0.811765_0.929412_0.000000_0.000000",
            "pbrMetallicRoughness": {
                "baseColorFactor": [
                    0.615686297416687,
                    0.8117647171020508,
                    0.929411768913269,
                    1.0
                ],
                "metallicFactor": 0.0
            }
        }
    ],
    "meshes": [
        {
            "name": "mesh0_mesh",
            "primitives": [
                {
                    "attributes": {
                        "NORMAL": 1,
                        "POSITION": 0,
                        "TEXCOORD_0": 2
                    },
                    "indices": 3,
                    "material": 0
                },
                {
                    "attributes": {
                        "NORMAL": 5,
                        "POSITION": 4,
                        "TEXCOORD_0": 6
                    },
                    "indices": 7,
                    "material": 0
                },
                {
                    "attributes": {
                        "NORMAL": 9,
                        "POSITION": 8,
                        "TEXCOORD_0": 10
                    },
                    "indices": 11,
                    "material": 0
                },
                {
                    "attributes": {
                        "NORMAL": 13,
                        "POSITION": 12,
                        "TEXCOORD_0": 14
                    },
                    "indices": 15,
                    "material": 0
                },
                {
                    "attributes": {
                        "NORMAL": 17,
                        "POSITION": 16,
                        "TEXCOORD_0": 18
                    },
                    "indices": 19,
                    "material": 0
                },
                {
                    "attributes": {
                        "NORMAL": 21,
                        "POSITION": 20,
                        "TEXCOORD_0": 22
                    },
                    "indices": 23,
                    "material": 0
                },
                {
                    "attributes": {
                        "NORMAL": 25,
                        "POSITION": 24,
                        "TEXCOORD_0": 26
                    },
                    "indices": 27,
                    "material": 0
                },
                {
                    "attributes": {
                        "NORMAL": 29,
                        "POSITION": 28,
                        "TEXCOORD_0": 30
                    },
                    "indices": 31,
                    "material": 0
                }
            ]
        },
        {
            "name": "mesh8_mesh",
            "primitives": [
                {
                    "attributes": {
                        "NORMAL": 33,
                        "POSITION": 32,
                        "TEXCOORD_0": 34
                    },
                    "indices": 35,
                    "material": 0
                },
                {
                    "attributes": {
                        "NORMAL": 37,
                        "POSITION": 36,
                        "TEXCOORD_0": 38
                    },
                    "indices": 39,
                    "material": 0
                },
                {
                    "attributes": {
                        "NORMAL": 41,
                        "POSITION": 40,
                        "TEXCOORD_0": 42
                    },
                    "indices": 43,
                    "material": 0
                },
                {
                    "attributes": {
                        "NORMAL": 45,
                        "POSITION": 44,
                        "TEXCOORD_0": 46
                    },
                    "indices": 47,
                    "material": 0
                },
                {
                    "attributes": {
                        "NORMAL": 49,
                        "POSITION": 48,
                        "TEXCOORD_0": 50
                    },
                    "indices": 51,
                    "material": 0
                },
                {
                    "attributes": {
                        "NORMAL": 53,
                        "POSITION": 52,
                        "TEXCOORD_0": 54
                    },
                    "indices": 55,
                    "material": 0
                },
                {
                    "attributes": {
                        "NORMAL": 57,
                        "POSITION": 56,
                        "TEXCOORD_0": 58
                    },
                    "indices": 59,
                    "material": 0
                },
                {
                    "attributes": {
                        "NORMAL": 61,
                        "POSITION": 60,
                        "TEXCOORD_0": 62
                    },
                    "indices": 63,
                    "material": 0
                },
                {
                    "attributes": {
                        "NORMAL": 65,
                        "POSITION": 64,
                        "TEXCOORD_0": 66
                    },
                    "indices": 67,
                    "material": 0
                },
                {
                    "attributes": {
                        "NORMAL": 69,
                        "POSITION": 68,
                        "TEXCOORD_0": 70
                    },
                    "indices": 71,
                    "material": 0
                },
                {
                    "attributes": {
                        "NORMAL": 73,
                        "POSITION": 72,
                        "TEXCOORD_0": 74
                    },
                    "indices": 75,
                    "material": 0
                },
                {
                    "attributes": {
                        "NORMAL": 77,
                        "POSITION": 76,
                        "TEXCOORD_0": 78
                    },
                    "indices": 79,
                    "material": 0
                },
                {
                    "attributes": {
                        "NORMAL": 81,
                        "POSITION": 80,
                        "TEXCOORD_0": 82
                    },
                    "indices": 83,
                    "material": 0
                },
                {
                    "attributes": {
                        "NORMAL": 85,
                        "POSITION": 84,
                        "TEXCOORD_0": 86
                    },
                    "indices": 87,
                    "material": 0
                },
                {
                    "attributes": {
                        "NORMAL": 89,
                        "POSITION": 88,
                        "TEXCOORD_0": 90
                    },
                    "indices": 91,
                    "material": 0
                }
            ]
        }
    ],
    "nodes": [
        {
            "children": [
                1,
                3
            ],
            "extensions": {
                "PTC_onshape_metadata": {
                    "entity_type": "Assembly"
                }
            },
            "name": "Assembly 1"
        },
        {
            "children": [
                2
            ],
            "extensions": {
                "PTC_onshape_metadata": {
                    "entity_type": "Instance",
                    "id": [
                        "MjtNN2RhIYPSx2ndP"
                    ]
                }
            },
            "matrix": [
                1.0,
                0.0,
                0.0,
                0.0,
                0.0,
                1.0,
                0.0,
                0.0,
                0.0,
                0.0,
                1.0,
                0.0,
                -0.04303457587957382,
                -0.08538977801799774,
                0.0427803099155426,
                1.0
            ],
            "name": "occurrence of Part 1"
        },
        {
            "extensions": {
                "PTC_onshape_metadata": {
                    "entity_type": "Body",
                    "id": [
                        "JHD"
                    ]
                }
            },
            "mesh": 0,
            "name": "Part 1"
        },
        {
            "children": [
                4
            ],
            "extensions": {
                "PTC_onshape_metadata": {
                    "entity_type": "Instance",
                    "id": [
                        "MIxC2sxymGs+vXRTC"
                    ]
                }
            },
            "matrix": [
                1.0,
                0.0,
                0.0,
                0.0,
                0.0,
                1.0,
                0.0,
                0.0,
                0.0,
                0.0,
                1.0,
                0.0,
                -0.05539477616548538,
                -0.08538977801799774,
                0.011747967451810837,
                1.0
            ],
            "name": "occurrence of Part 1"
        },
        {
            "extensions": {
                "PTC_onshape_metadata": {
                    "entity_type": "Body",
                    "id": [
                        "JHD"
                    ]
                }
            },
            "mesh": 1,
            "name": "Part 1"
        }
    ],
    "scene": 0,
    "scenes": [
        {
            "name": "Root",
            "nodes": [
                0
            ]
        }
    ]
}